# Blender v2.80 (sub 45) OBJ File: ''
# www.blender.org
mtllib blenderrock2.mtl
o rock1
v -0.736186 -0.066536 0.105058
v -0.736186 -0.166536 -0.594942
v -0.736186 -0.166536 0.105058
v -0.736186 -0.066536 -0.594942
v -0.636186 -0.066536 -0.594942
v -0.636186 -0.166536 -0.694942
v -0.636186 -0.166536 -0.594942
v -0.636186 -0.066536 -0.694942
v -0.436186 -0.066536 0.805058
v -0.436186 -0.166536 0.105058
v -0.436186 -0.166536 0.805058
v -0.436186 -0.066536 0.105058
v -0.336186 0.033464 0.505058
v -0.336186 -0.066536 -0.394942
v -0.336186 -0.066536 0.505058
v -0.336186 0.033464 -0.394942
v -0.236186 0.033464 -0.394942
v -0.236186 -0.066536 -0.494942
v -0.236186 -0.066536 -0.394942
v -0.236186 0.333464 0.305058
v -0.236186 0.033464 0.305058
v -0.236186 0.333464 -0.494942
v -0.036186 0.033464 0.705058
v -0.036186 -0.066536 0.505058
v -0.036186 -0.066536 0.705058
v -0.036186 0.033464 0.505058
v 0.063814 -0.166536 0.805058
v 0.063814 -0.166536 0.705058
v 0.063814 -0.066536 0.805058
v 0.063814 -0.066536 0.705058
v 0.163814 -0.166536 -0.594942
v 0.163814 -0.166536 -0.694942
v 0.163814 -0.066536 -0.594942
v 0.163814 -0.066536 -0.694942
v 0.263814 -0.166536 -0.494942
v 0.263814 -0.166536 -0.594942
v 0.263814 -0.066536 -0.494942
v 0.263814 -0.066536 -0.594942
v 0.463814 -0.166536 0.705058
v 0.463814 -0.166536 0.305058
v 0.463814 0.033464 0.705058
v 0.463814 0.033464 0.305058
v 0.463814 -0.166536 -0.194942
v 0.463814 -0.166536 -0.494942
v 0.463814 0.133464 -0.194942
v 0.463814 0.133464 0.305058
v 0.463814 0.333464 0.305058
v 0.463814 0.333464 -0.494942
v 0.663814 -0.166536 0.305058
v 0.663814 -0.166536 -0.194942
v 0.663814 0.133464 0.305058
v 0.663814 0.133464 -0.194942
v 0.063814 -0.166536 0.805058
v -0.436186 -0.066536 0.805058
v -0.436186 -0.166536 0.805058
v 0.063814 -0.066536 0.805058
v 0.063814 -0.066536 0.705058
v -0.036186 0.033464 0.705058
v -0.036186 -0.066536 0.705058
v 0.463814 -0.166536 0.705058
v 0.063814 -0.166536 0.705058
v 0.463814 0.033464 0.705058
v -0.036186 -0.066536 0.505058
v -0.336186 0.033464 0.505058
v -0.336186 -0.066536 0.505058
v -0.036186 0.033464 0.505058
v 0.463814 0.033464 0.305058
v -0.236186 0.333464 0.305058
v -0.236186 0.033464 0.305058
v 0.463814 0.133464 0.305058
v 0.463814 0.333464 0.305058
v 0.663814 -0.166536 0.305058
v 0.463814 -0.166536 0.305058
v 0.663814 0.133464 0.305058
v -0.436186 -0.166536 0.105058
v -0.736186 -0.066536 0.105058
v -0.736186 -0.166536 0.105058
v -0.436186 -0.066536 0.105058
v 0.463814 -0.166536 -0.194942
v 0.463814 0.133464 -0.194942
v 0.663814 -0.166536 -0.194942
v 0.663814 0.133464 -0.194942
v -0.336186 -0.066536 -0.394942
v -0.336186 0.033464 -0.394942
v -0.236186 -0.066536 -0.394942
v -0.236186 0.033464 -0.394942
v -0.236186 -0.066536 -0.494942
v -0.236186 0.333464 -0.494942
v 0.263814 -0.066536 -0.494942
v 0.263814 -0.166536 -0.494942
v 0.463814 -0.166536 -0.494942
v 0.463814 0.333464 -0.494942
v -0.736186 -0.166536 -0.594942
v -0.736186 -0.066536 -0.594942
v -0.636186 -0.166536 -0.594942
v -0.636186 -0.066536 -0.594942
v 0.163814 -0.166536 -0.594942
v 0.163814 -0.066536 -0.594942
v 0.263814 -0.166536 -0.594942
v 0.263814 -0.066536 -0.594942
v -0.636186 -0.166536 -0.694942
v -0.636186 -0.066536 -0.694942
v 0.163814 -0.166536 -0.694942
v 0.163814 -0.066536 -0.694942
v 0.063814 -0.166536 0.705058
v 0.063814 -0.166536 0.805058
v -0.436186 -0.166536 0.805058
v 0.463814 -0.166536 0.305058
v 0.463814 -0.166536 0.705058
v -0.436186 -0.166536 0.105058
v 0.663814 -0.166536 0.305058
v 0.463814 -0.166536 -0.194942
v -0.736186 -0.166536 0.105058
v 0.663814 -0.166536 -0.194942
v 0.263814 -0.166536 -0.494942
v 0.463814 -0.166536 -0.494942
v -0.736186 -0.166536 -0.594942
v -0.636186 -0.166536 -0.594942
v 0.163814 -0.166536 -0.594942
v 0.263814 -0.166536 -0.594942
v -0.636186 -0.166536 -0.694942
v 0.163814 -0.166536 -0.694942
v -0.436186 -0.066536 0.805058
v 0.063814 -0.066536 0.805058
v -0.036186 -0.066536 0.705058
v 0.063814 -0.066536 0.705058
v -0.336186 -0.066536 0.505058
v -0.036186 -0.066536 0.505058
v -0.436186 -0.066536 0.105058
v -0.336186 -0.066536 -0.394942
v -0.736186 -0.066536 0.105058
v -0.236186 -0.066536 -0.394942
v -0.236186 -0.066536 -0.494942
v -0.736186 -0.066536 -0.594942
v 0.263814 -0.066536 -0.494942
v -0.636186 -0.066536 -0.594942
v 0.163814 -0.066536 -0.594942
v 0.263814 -0.066536 -0.594942
v -0.636186 -0.066536 -0.694942
v 0.163814 -0.066536 -0.694942
v -0.036186 0.033464 0.705058
v 0.463814 0.033464 0.705058
v -0.036186 0.033464 0.505058
v -0.336186 0.033464 0.505058
v -0.236186 0.033464 0.305058
v 0.463814 0.033464 0.305058
v -0.336186 0.033464 -0.394942
v -0.236186 0.033464 -0.394942
v 0.463814 0.133464 0.305058
v 0.663814 0.133464 0.305058
v 0.463814 0.133464 -0.194942
v 0.663814 0.133464 -0.194942
v -0.236186 0.333464 0.305058
v 0.463814 0.333464 0.305058
v -0.236186 0.333464 -0.494942
v 0.463814 0.333464 -0.494942
vt 0.927734 0.500000
vt 0.927734 0.500000
vt 0.927734 0.500000
vt 0.927734 0.500000
vt 0.927734 0.500000
vt 0.927734 0.500000
vt 0.927734 0.500000
vt 0.927734 0.500000
vt 0.927734 0.500000
vt 0.927734 0.500000
vt 0.927734 0.500000
vt 0.927734 0.500000
vt 0.927734 0.500000
vt 0.927734 0.500000
vt 0.927734 0.500000
vt 0.927734 0.500000
vt 0.927734 0.500000
vt 0.927734 0.500000
vt 0.927734 0.500000
vt 0.927734 0.500000
vt 0.927734 0.500000
vt 0.927734 0.500000
vt 0.927734 0.500000
vt 0.927734 0.500000
vt 0.927734 0.500000
vt 0.927734 0.500000
vt 0.927734 0.500000
vt 0.927734 0.500000
vt 0.927734 0.500000
vt 0.927734 0.500000
vt 0.927734 0.500000
vt 0.927734 0.500000
vt 0.927734 0.500000
vt 0.927734 0.500000
vt 0.927734 0.500000
vt 0.927734 0.500000
vt 0.927734 0.500000
vt 0.927734 0.500000
vt 0.927734 0.500000
vt 0.927734 0.500000
vt 0.927734 0.500000
vt 0.927734 0.500000
vt 0.927734 0.500000
vt 0.927734 0.500000
vt 0.927734 0.500000
vt 0.927734 0.500000
vt 0.927734 0.500000
vt 0.927734 0.500000
vt 0.927734 0.500000
vt 0.927734 0.500000
vt 0.927734 0.500000
vt 0.927734 0.500000
vt 0.927734 0.500000
vt 0.927734 0.500000
vt 0.927734 0.500000
vt 0.927734 0.500000
vt 0.927734 0.500000
vt 0.927734 0.500000
vt 0.927734 0.500000
vt 0.927734 0.500000
vt 0.927734 0.500000
vt 0.927734 0.500000
vt 0.927734 0.500000
vt 0.927734 0.500000
vt 0.927734 0.500000
vt 0.927734 0.500000
vt 0.927734 0.500000
vt 0.927734 0.500000
vt 0.927734 0.500000
vt 0.927734 0.500000
vt 0.927734 0.500000
vt 0.927734 0.500000
vt 0.927734 0.500000
vt 0.927734 0.500000
vt 0.927734 0.500000
vt 0.927734 0.500000
vt 0.927734 0.500000
vt 0.927734 0.500000
vt 0.927734 0.500000
vt 0.927734 0.500000
vt 0.927734 0.500000
vt 0.927734 0.500000
vt 0.927734 0.500000
vt 0.927734 0.500000
vt 0.927734 0.500000
vt 0.927734 0.500000
vt 0.927734 0.500000
vt 0.927734 0.500000
vt 0.927734 0.500000
vt 0.927734 0.500000
vt 0.927734 0.500000
vt 0.927734 0.500000
vt 0.927734 0.500000
vt 0.927734 0.500000
vt 0.927734 0.500000
vt 0.927734 0.500000
vt 0.927734 0.500000
vt 0.927734 0.500000
vt 0.927734 0.500000
vt 0.927734 0.500000
vt 0.927734 0.500000
vt 0.927734 0.500000
vt 0.927734 0.500000
vt 0.927734 0.500000
vt 0.927734 0.500000
vt 0.927734 0.500000
vt 0.927734 0.500000
vt 0.927734 0.500000
vt 0.927734 0.500000
vt 0.927734 0.500000
vt 0.927734 0.500000
vt 0.927734 0.500000
vt 0.927734 0.500000
vt 0.927734 0.500000
vt 0.927734 0.500000
vt 0.927734 0.500000
vt 0.927734 0.500000
vt 0.927734 0.500000
vt 0.927734 0.500000
vt 0.927734 0.500000
vt 0.927734 0.500000
vt 0.927734 0.500000
vt 0.927734 0.500000
vt 0.927734 0.500000
vt 0.927734 0.500000
vt 0.927734 0.500000
vt 0.927734 0.500000
vt 0.927734 0.500000
vt 0.927734 0.500000
vt 0.927734 0.500000
vt 0.927734 0.500000
vt 0.927734 0.500000
vt 0.927734 0.500000
vt 0.927734 0.500000
vt 0.927734 0.500000
vt 0.927734 0.500000
vt 0.927734 0.500000
vt 0.927734 0.500000
vt 0.927734 0.500000
vt 0.927734 0.500000
vt 0.927734 0.500000
vt 0.927734 0.500000
vt 0.927734 0.500000
vt 0.927734 0.500000
vt 0.927734 0.500000
vt 0.927734 0.500000
vt 0.927734 0.500000
vt 0.927734 0.500000
vt 0.927734 0.500000
vt 0.927734 0.500000
vt 0.927734 0.500000
vt 0.927734 0.500000
vt 0.927734 0.500000
vt 0.927734 0.500000
vt 0.927734 0.500000
vt 0.927734 0.500000
vn -1.0000 0.0000 0.0000
vn 1.0000 0.0000 0.0000
vn 0.0000 0.0000 1.0000
vn 0.0000 0.0000 -1.0000
vn 0.0000 -1.0000 -0.0000
vn -0.0000 1.0000 0.0000
usemtl palette.002
s 1
f 1/1/1 2/2/1 3/3/1
f 4/4/1 2/2/1 1/1/1
f 5/5/1 6/6/1 7/7/1
f 8/8/1 6/6/1 5/5/1
f 9/9/1 10/10/1 11/11/1
f 12/12/1 10/10/1 9/9/1
f 13/13/1 14/14/1 15/15/1
f 16/16/1 14/14/1 13/13/1
f 17/17/1 18/18/1 19/19/1
f 20/20/1 17/17/1 21/21/1
f 22/22/1 18/18/1 17/17/1
f 22/22/1 17/17/1 20/20/1
f 23/23/1 24/24/1 25/25/1
f 26/26/1 24/24/1 23/23/1
f 27/27/2 28/28/2 29/29/2
f 29/29/2 28/28/2 30/30/2
f 31/31/2 32/32/2 33/33/2
f 33/33/2 32/32/2 34/34/2
f 35/35/2 36/36/2 37/37/2
f 37/37/2 36/36/2 38/38/2
f 39/39/2 40/40/2 41/41/2
f 41/41/2 40/40/2 42/42/2
f 43/43/2 44/44/2 45/45/2
f 46/46/2 45/45/2 47/47/2
f 45/45/2 44/44/2 48/48/2
f 47/47/2 45/45/2 48/48/2
f 49/49/2 50/50/2 51/51/2
f 51/51/2 50/50/2 52/52/2
f 53/53/3 54/54/3 55/55/3
f 56/56/3 54/54/3 53/53/3
f 57/57/3 58/58/3 59/59/3
f 60/60/3 57/57/3 61/61/3
f 62/62/3 58/58/3 57/57/3
f 62/62/3 57/57/3 60/60/3
f 63/63/3 64/64/3 65/65/3
f 66/66/3 64/64/3 63/63/3
f 67/67/3 68/68/3 69/69/3
f 70/70/3 68/68/3 67/67/3
f 71/71/3 68/68/3 70/70/3
f 72/72/3 67/67/3 73/73/3
f 72/72/3 70/70/3 67/67/3
f 74/74/3 70/70/3 72/72/3
f 75/75/3 76/76/3 77/77/3
f 78/78/3 76/76/3 75/75/3
f 79/79/4 80/80/4 81/81/4
f 81/81/4 80/80/4 82/82/4
f 83/83/4 84/84/4 85/85/4
f 85/85/4 84/84/4 86/86/4
f 87/87/4 88/88/4 89/89/4
f 90/90/4 89/89/4 91/91/4
f 89/89/4 88/88/4 92/92/4
f 91/91/4 89/89/4 92/92/4
f 93/93/4 94/94/4 95/95/4
f 95/95/4 94/94/4 96/96/4
f 97/97/4 98/98/4 99/99/4
f 99/99/4 98/98/4 100/100/4
f 101/101/4 102/102/4 103/103/4
f 103/103/4 102/102/4 104/104/4
f 105/105/5 106/106/5 107/107/5
f 108/108/5 109/109/5 105/105/5
f 110/110/5 105/105/5 107/107/5
f 110/110/5 111/111/5 108/108/5
f 110/110/5 108/108/5 105/105/5
f 112/112/5 111/111/5 110/110/5
f 112/112/5 110/110/5 113/113/5
f 114/114/5 111/111/5 112/112/5
f 115/115/5 112/112/5 113/113/5
f 116/116/5 112/112/5 115/115/5
f 117/117/5 115/115/5 113/113/5
f 118/118/5 115/115/5 117/117/5
f 119/119/5 115/115/5 118/118/5
f 120/120/5 115/115/5 119/119/5
f 121/121/5 119/119/5 118/118/5
f 122/122/5 119/119/5 121/121/5
f 123/123/6 124/124/6 125/125/6
f 125/125/6 124/124/6 126/126/6
f 123/123/6 125/125/6 127/127/6
f 127/127/6 125/125/6 128/128/6
f 123/123/6 127/127/6 129/129/6
f 129/129/6 127/127/6 130/130/6
f 131/131/6 129/129/6 130/130/6
f 130/130/6 132/132/6 133/133/6
f 130/130/6 133/133/6 134/134/6
f 133/133/6 135/135/6 134/134/6
f 131/131/6 130/130/6 134/134/6
f 134/134/6 135/135/6 136/136/6
f 136/136/6 135/135/6 137/137/6
f 137/137/6 135/135/6 138/138/6
f 136/136/6 137/137/6 139/139/6
f 139/139/6 137/137/6 140/140/6
f 141/141/6 142/142/6 143/143/6
f 144/144/6 143/143/6 145/145/6
f 143/143/6 142/142/6 146/146/6
f 145/145/6 143/143/6 146/146/6
f 144/144/6 145/145/6 147/147/6
f 147/147/6 145/145/6 148/148/6
f 149/149/6 150/150/6 151/151/6
f 151/151/6 150/150/6 152/152/6
f 153/153/6 154/154/6 155/155/6
f 155/155/6 154/154/6 156/156/6
