# Blender v2.80 (sub 45) OBJ File: ''
# www.blender.org
mtllib blenderrock1.mtl
o rock3
v -0.433846 0.024615 0.614615
v -0.433846 -0.075385 0.414615
v -0.433846 -0.075385 0.614615
v -0.433846 0.024615 0.414615
v -0.233846 0.024615 0.014615
v -0.233846 -0.075385 -0.385385
v -0.233846 -0.075385 0.014615
v -0.233846 0.024615 -0.385385
v -0.133846 0.024615 0.014615
v -0.133846 -0.075385 0.014615
v -0.133846 -0.075385 0.114615
v -0.133846 0.124615 0.114615
v -0.133846 0.024615 -0.285385
v -0.133846 0.124615 -0.285385
v -0.033846 0.024615 0.414615
v -0.033846 -0.075385 0.114615
v -0.033846 -0.075385 0.414615
v -0.033846 0.024615 0.114615
v -0.033846 0.024615 -0.385385
v -0.033846 -0.075385 -0.485385
v -0.033846 -0.075385 -0.385385
v -0.033846 0.024615 -0.485385
v 0.066154 0.124615 0.214615
v 0.066154 0.024615 0.114615
v 0.066154 0.024615 0.214615
v 0.066154 0.124615 0.114615
v -0.233846 -0.075385 0.614615
v -0.233846 -0.075385 0.414615
v -0.233846 0.024615 0.614615
v -0.233846 0.024615 0.414615
v 0.166154 -0.075385 0.414615
v 0.166154 -0.075385 0.214615
v 0.166154 0.024615 0.414615
v 0.166154 0.024615 0.214615
v 0.166154 0.024615 0.014615
v 0.166154 0.024615 -0.285385
v 0.166154 0.124615 0.014615
v 0.166154 0.124615 -0.285385
v 0.266154 -0.075385 0.214615
v 0.266154 -0.075385 -0.485385
v 0.266154 0.024615 0.014615
v 0.266154 0.024615 -0.485385
v 0.266154 0.124615 0.214615
v 0.266154 0.124615 0.014615
v -0.233846 -0.075385 0.614615
v -0.433846 0.024615 0.614615
v -0.433846 -0.075385 0.614615
v -0.233846 0.024615 0.614615
v 0.166154 -0.075385 0.414615
v -0.033846 0.024615 0.414615
v -0.033846 -0.075385 0.414615
v 0.166154 0.024615 0.414615
v 0.166154 0.024615 0.214615
v 0.066154 0.124615 0.214615
v 0.066154 0.024615 0.214615
v 0.266154 -0.075385 0.214615
v 0.166154 -0.075385 0.214615
v 0.266154 0.124615 0.214615
v -0.033846 -0.075385 0.114615
v -0.133846 0.124615 0.114615
v -0.133846 -0.075385 0.114615
v -0.033846 0.024615 0.114615
v 0.066154 0.024615 0.114615
v 0.066154 0.124615 0.114615
v -0.133846 -0.075385 0.014615
v -0.233846 0.024615 0.014615
v -0.233846 -0.075385 0.014615
v -0.133846 0.024615 0.014615
v -0.433846 -0.075385 0.414615
v -0.433846 0.024615 0.414615
v -0.233846 -0.075385 0.414615
v -0.233846 0.024615 0.414615
v 0.166154 0.024615 0.014615
v 0.166154 0.124615 0.014615
v 0.266154 0.024615 0.014615
v 0.266154 0.124615 0.014615
v -0.133846 0.024615 -0.285385
v -0.133846 0.124615 -0.285385
v 0.166154 0.024615 -0.285385
v 0.166154 0.124615 -0.285385
v -0.233846 -0.075385 -0.385385
v -0.233846 0.024615 -0.385385
v -0.033846 -0.075385 -0.385385
v -0.033846 0.024615 -0.385385
v -0.033846 -0.075385 -0.485385
v -0.033846 0.024615 -0.485385
v 0.266154 -0.075385 -0.485385
v 0.266154 0.024615 -0.485385
v -0.433846 -0.075385 0.414615
v -0.233846 -0.075385 0.614615
v -0.433846 -0.075385 0.614615
v -0.233846 -0.075385 0.414615
v 0.166154 -0.075385 0.214615
v 0.166154 -0.075385 0.414615
v -0.033846 -0.075385 0.414615
v -0.033846 -0.075385 0.114615
v 0.266154 -0.075385 0.214615
v -0.133846 -0.075385 0.014615
v -0.133846 -0.075385 0.114615
v -0.233846 -0.075385 -0.385385
v -0.233846 -0.075385 0.014615
v -0.033846 -0.075385 -0.385385
v -0.033846 -0.075385 -0.485385
v 0.266154 -0.075385 -0.485385
v -0.433846 0.024615 0.614615
v -0.233846 0.024615 0.614615
v -0.433846 0.024615 0.414615
v -0.233846 0.024615 0.414615
v -0.033846 0.024615 0.414615
v 0.166154 0.024615 0.414615
v 0.066154 0.024615 0.214615
v 0.166154 0.024615 0.214615
v -0.033846 0.024615 0.114615
v 0.066154 0.024615 0.114615
v -0.233846 0.024615 0.014615
v -0.133846 0.024615 0.014615
v -0.133846 0.024615 -0.285385
v 0.166154 0.024615 0.014615
v 0.266154 0.024615 0.014615
v 0.166154 0.024615 -0.285385
v -0.233846 0.024615 -0.385385
v -0.033846 0.024615 -0.385385
v -0.033846 0.024615 -0.485385
v 0.266154 0.024615 -0.485385
v 0.066154 0.124615 0.214615
v 0.266154 0.124615 0.214615
v 0.066154 0.124615 0.114615
v 0.166154 0.124615 0.014615
v -0.133846 0.124615 0.114615
v 0.266154 0.124615 0.014615
v -0.133846 0.124615 -0.285385
v 0.166154 0.124615 -0.285385
vt 0.927734 0.500000
vt 0.927734 0.500000
vt 0.927734 0.500000
vt 0.927734 0.500000
vt 0.927734 0.500000
vt 0.927734 0.500000
vt 0.927734 0.500000
vt 0.927734 0.500000
vt 0.927734 0.500000
vt 0.927734 0.500000
vt 0.927734 0.500000
vt 0.927734 0.500000
vt 0.927734 0.500000
vt 0.927734 0.500000
vt 0.927734 0.500000
vt 0.927734 0.500000
vt 0.927734 0.500000
vt 0.927734 0.500000
vt 0.927734 0.500000
vt 0.927734 0.500000
vt 0.927734 0.500000
vt 0.927734 0.500000
vt 0.927734 0.500000
vt 0.927734 0.500000
vt 0.927734 0.500000
vt 0.927734 0.500000
vt 0.927734 0.500000
vt 0.927734 0.500000
vt 0.927734 0.500000
vt 0.927734 0.500000
vt 0.927734 0.500000
vt 0.927734 0.500000
vt 0.927734 0.500000
vt 0.927734 0.500000
vt 0.927734 0.500000
vt 0.927734 0.500000
vt 0.927734 0.500000
vt 0.927734 0.500000
vt 0.927734 0.500000
vt 0.927734 0.500000
vt 0.927734 0.500000
vt 0.927734 0.500000
vt 0.927734 0.500000
vt 0.927734 0.500000
vt 0.927734 0.500000
vt 0.927734 0.500000
vt 0.927734 0.500000
vt 0.927734 0.500000
vt 0.927734 0.500000
vt 0.927734 0.500000
vt 0.927734 0.500000
vt 0.927734 0.500000
vt 0.927734 0.500000
vt 0.927734 0.500000
vt 0.927734 0.500000
vt 0.927734 0.500000
vt 0.927734 0.500000
vt 0.927734 0.500000
vt 0.927734 0.500000
vt 0.927734 0.500000
vt 0.927734 0.500000
vt 0.927734 0.500000
vt 0.927734 0.500000
vt 0.927734 0.500000
vt 0.927734 0.500000
vt 0.927734 0.500000
vt 0.927734 0.500000
vt 0.927734 0.500000
vt 0.927734 0.500000
vt 0.927734 0.500000
vt 0.927734 0.500000
vt 0.927734 0.500000
vt 0.927734 0.500000
vt 0.927734 0.500000
vt 0.927734 0.500000
vt 0.927734 0.500000
vt 0.927734 0.500000
vt 0.927734 0.500000
vt 0.927734 0.500000
vt 0.927734 0.500000
vt 0.927734 0.500000
vt 0.927734 0.500000
vt 0.927734 0.500000
vt 0.927734 0.500000
vt 0.927734 0.500000
vt 0.927734 0.500000
vt 0.927734 0.500000
vt 0.927734 0.500000
vt 0.927734 0.500000
vt 0.927734 0.500000
vt 0.927734 0.500000
vt 0.927734 0.500000
vt 0.927734 0.500000
vt 0.927734 0.500000
vt 0.927734 0.500000
vt 0.927734 0.500000
vt 0.927734 0.500000
vt 0.927734 0.500000
vt 0.927734 0.500000
vt 0.927734 0.500000
vt 0.927734 0.500000
vt 0.927734 0.500000
vt 0.927734 0.500000
vt 0.927734 0.500000
vt 0.927734 0.500000
vt 0.927734 0.500000
vt 0.927734 0.500000
vt 0.927734 0.500000
vt 0.927734 0.500000
vt 0.927734 0.500000
vt 0.927734 0.500000
vt 0.927734 0.500000
vt 0.927734 0.500000
vt 0.927734 0.500000
vt 0.927734 0.500000
vt 0.927734 0.500000
vt 0.927734 0.500000
vt 0.927734 0.500000
vt 0.927734 0.500000
vt 0.927734 0.500000
vt 0.927734 0.500000
vt 0.927734 0.500000
vt 0.927734 0.500000
vt 0.927734 0.500000
vt 0.927734 0.500000
vt 0.927734 0.500000
vt 0.927734 0.500000
vt 0.927734 0.500000
vt 0.927734 0.500000
vt 0.927734 0.500000
vt 0.927734 0.500000
vt 0.927734 0.500000
vn -1.0000 0.0000 0.0000
vn 1.0000 0.0000 0.0000
vn 0.0000 0.0000 1.0000
vn 0.0000 0.0000 -1.0000
vn 0.0000 -1.0000 -0.0000
vn 0.0000 1.0000 0.0000
usemtl palette.001
s 1
f 1/1/1 2/2/1 3/3/1
f 4/4/1 2/2/1 1/1/1
f 5/5/1 6/6/1 7/7/1
f 8/8/1 6/6/1 5/5/1
f 9/9/1 10/10/1 11/11/1
f 12/12/1 9/9/1 11/11/1
f 12/12/1 13/13/1 9/9/1
f 14/14/1 13/13/1 12/12/1
f 15/15/1 16/16/1 17/17/1
f 18/18/1 16/16/1 15/15/1
f 19/19/1 20/20/1 21/21/1
f 22/22/1 20/20/1 19/19/1
f 23/23/1 24/24/1 25/25/1
f 26/26/1 24/24/1 23/23/1
f 27/27/2 28/28/2 29/29/2
f 29/29/2 28/28/2 30/30/2
f 31/31/2 32/32/2 33/33/2
f 33/33/2 32/32/2 34/34/2
f 35/35/2 36/36/2 37/37/2
f 37/37/2 36/36/2 38/38/2
f 39/39/2 40/40/2 41/41/2
f 41/41/2 40/40/2 42/42/2
f 39/39/2 41/41/2 43/43/2
f 43/43/2 41/41/2 44/44/2
f 45/45/3 46/46/3 47/47/3
f 48/48/3 46/46/3 45/45/3
f 49/49/3 50/50/3 51/51/3
f 52/52/3 50/50/3 49/49/3
f 53/53/3 54/54/3 55/55/3
f 56/56/3 53/53/3 57/57/3
f 58/58/3 54/54/3 53/53/3
f 58/58/3 53/53/3 56/56/3
f 59/59/3 60/60/3 61/61/3
f 62/62/3 60/60/3 59/59/3
f 63/63/3 60/60/3 62/62/3
f 64/64/3 60/60/3 63/63/3
f 65/65/3 66/66/3 67/67/3
f 68/68/3 66/66/3 65/65/3
f 69/69/4 70/70/4 71/71/4
f 71/71/4 70/70/4 72/72/4
f 73/73/4 74/74/4 75/75/4
f 75/75/4 74/74/4 76/76/4
f 77/77/4 78/78/4 79/79/4
f 79/79/4 78/78/4 80/80/4
f 81/81/4 82/82/4 83/83/4
f 83/83/4 82/82/4 84/84/4
f 85/85/4 86/86/4 87/87/4
f 87/87/4 86/86/4 88/88/4
f 89/89/5 90/90/5 91/91/5
f 92/92/5 90/90/5 89/89/5
f 93/93/5 94/94/5 95/95/5
f 96/96/5 93/93/5 95/95/5
f 96/96/5 97/97/5 93/93/5
f 98/98/5 96/96/5 99/99/5
f 100/100/5 98/98/5 101/101/5
f 102/102/5 97/97/5 96/96/5
f 102/102/5 98/98/5 100/100/5
f 102/102/5 96/96/5 98/98/5
f 103/103/5 97/97/5 102/102/5
f 104/104/5 97/97/5 103/103/5
f 105/105/6 106/106/6 107/107/6
f 107/107/6 106/106/6 108/108/6
f 109/109/6 110/110/6 111/111/6
f 111/111/6 110/110/6 112/112/6
f 109/109/6 111/111/6 113/113/6
f 113/113/6 111/111/6 114/114/6
f 115/115/6 116/116/6 117/117/6
f 118/118/6 119/119/6 120/120/6
f 115/115/6 117/117/6 121/121/6
f 117/117/6 120/120/6 121/121/6
f 121/121/6 120/120/6 122/122/6
f 122/122/6 120/120/6 123/123/6
f 120/120/6 119/119/6 124/124/6
f 123/123/6 120/120/6 124/124/6
f 125/125/6 126/126/6 127/127/6
f 127/127/6 126/126/6 128/128/6
f 129/129/6 127/127/6 128/128/6
f 128/128/6 126/126/6 130/130/6
f 129/129/6 128/128/6 131/131/6
f 131/131/6 128/128/6 132/132/6
