# Blender v2.93.4 OBJ File: ''
# www.blender.org
mtllib HMPstonefence.mtl
v -0.650000 0.635538 0.137414
v -0.650000 0.035538 -0.062586
v -0.650000 0.035538 0.137414
v -0.650000 0.635538 -0.062586
v -0.650000 0.735538 0.137414
v -0.650000 0.735538 -0.062586
v -0.350000 0.435538 0.037414
v -0.350000 0.235538 -0.062586
v -0.350000 0.235538 0.037414
v -0.350000 0.435538 -0.062586
v -0.350000 0.635538 0.037414
v -0.350000 0.535538 -0.062586
v -0.350000 0.535538 0.037414
v -0.350000 0.635538 -0.062586
v -0.150000 0.435538 0.037414
v -0.150000 0.235538 -0.062586
v -0.150000 0.235538 0.037414
v -0.150000 0.435538 -0.062586
v -0.150000 0.635538 0.037414
v -0.150000 0.535538 -0.062586
v -0.150000 0.535538 0.037414
v -0.150000 0.635538 -0.062586
v 0.050000 0.435538 0.037414
v 0.050000 0.235538 -0.062586
v 0.050000 0.235538 0.037414
v 0.050000 0.435538 -0.062586
v 0.050000 0.635538 0.037414
v 0.050000 0.535538 -0.062586
v 0.050000 0.535538 0.037414
v 0.050000 0.635538 -0.062586
v 0.250000 0.435538 0.037414
v 0.250000 0.235538 -0.062586
v 0.250000 0.235538 0.037414
v 0.250000 0.435538 -0.062586
v 0.250000 0.635538 0.037414
v 0.250000 0.535538 -0.062586
v 0.250000 0.535538 0.037414
v 0.250000 0.635538 -0.062586
v 0.450000 0.235538 0.037414
v 0.450000 0.135538 0.037414
v 0.450000 0.135538 0.137414
v 0.450000 0.435538 0.037414
v 0.450000 0.235538 -0.062586
v 0.450000 0.435538 -0.062586
v 0.450000 0.535538 0.037414
v 0.450000 0.635538 0.137414
v 0.450000 0.535538 -0.062586
v 0.450000 0.635538 -0.062586
v 0.450000 0.735538 0.137414
v 0.450000 0.735538 -0.062586
v -0.450000 0.135538 0.137414
v -0.450000 0.135538 0.037414
v -0.450000 0.235538 0.037414
v -0.450000 0.435538 0.037414
v -0.450000 0.235538 -0.062586
v -0.450000 0.435538 -0.062586
v -0.450000 0.535538 0.037414
v -0.450000 0.635538 0.137414
v -0.450000 0.535538 -0.062586
v -0.450000 0.635538 -0.062586
v -0.450000 0.735538 0.137414
v -0.450000 0.735538 -0.062586
v -0.250000 0.235538 0.037414
v -0.250000 0.235538 -0.062586
v -0.250000 0.435538 0.037414
v -0.250000 0.435538 -0.062586
v -0.250000 0.535538 0.037414
v -0.250000 0.535538 -0.062586
v -0.250000 0.635538 0.037414
v -0.250000 0.635538 -0.062586
v -0.050000 0.235538 0.037414
v -0.050000 0.235538 -0.062586
v -0.050000 0.435538 0.037414
v -0.050000 0.435538 -0.062586
v -0.050000 0.535538 0.037414
v -0.050000 0.535538 -0.062586
v -0.050000 0.635538 0.037414
v -0.050000 0.635538 -0.062586
v 0.150000 0.235538 0.037414
v 0.150000 0.235538 -0.062586
v 0.150000 0.435538 0.037414
v 0.150000 0.435538 -0.062586
v 0.150000 0.535538 0.037414
v 0.150000 0.535538 -0.062586
v 0.150000 0.635538 0.037414
v 0.150000 0.635538 -0.062586
v 0.350000 0.235538 0.037414
v 0.350000 0.235538 -0.062586
v 0.350000 0.435538 0.037414
v 0.350000 0.435538 -0.062586
v 0.350000 0.535538 0.037414
v 0.350000 0.535538 -0.062586
v 0.350000 0.635538 0.037414
v 0.350000 0.635538 -0.062586
v 0.650000 0.035538 0.137414
v 0.650000 0.035538 -0.062586
v 0.650000 0.635538 0.137414
v 0.650000 0.635538 -0.062586
v 0.650000 0.735538 0.137414
v 0.650000 0.735538 -0.062586
v -0.450000 0.135538 0.137414
v -0.650000 0.635538 0.137414
v -0.650000 0.035538 0.137414
v -0.450000 0.635538 0.137414
v -0.650000 0.735538 0.137414
v -0.450000 0.735538 0.137414
v 0.450000 0.135538 0.137414
v 0.650000 0.035538 0.137414
v 0.450000 0.635538 0.137414
v 0.650000 0.635538 0.137414
v 0.450000 0.735538 0.137414
v 0.650000 0.735538 0.137414
v -0.350000 0.235538 0.037414
v -0.450000 0.235538 0.037414
v -0.450000 0.135538 0.037414
v -0.350000 0.435538 0.037414
v -0.450000 0.535538 0.037414
v -0.450000 0.435538 0.037414
v -0.350000 0.535538 0.037414
v -0.250000 0.235538 0.037414
v -0.350000 0.635538 0.037414
v -0.250000 0.435538 0.037414
v -0.250000 0.535538 0.037414
v -0.250000 0.635538 0.037414
v -0.150000 0.235538 0.037414
v -0.150000 0.435538 0.037414
v -0.150000 0.535538 0.037414
v -0.050000 0.235538 0.037414
v -0.150000 0.635538 0.037414
v -0.050000 0.435538 0.037414
v -0.050000 0.535538 0.037414
v -0.050000 0.635538 0.037414
v 0.050000 0.235538 0.037414
v 0.050000 0.435538 0.037414
v 0.050000 0.535538 0.037414
v 0.150000 0.235538 0.037414
v 0.050000 0.635538 0.037414
v 0.150000 0.435538 0.037414
v 0.150000 0.535538 0.037414
v 0.150000 0.635538 0.037414
v 0.250000 0.235538 0.037414
v 0.250000 0.435538 0.037414
v 0.250000 0.535538 0.037414
v 0.350000 0.235538 0.037414
v 0.250000 0.635538 0.037414
v 0.350000 0.435538 0.037414
v 0.350000 0.535538 0.037414
v 0.350000 0.635538 0.037414
v 0.450000 0.135538 0.037414
v 0.450000 0.235538 0.037414
v 0.450000 0.435538 0.037414
v 0.450000 0.535538 0.037414
v -0.650000 0.035538 -0.062586
v -0.650000 0.635538 -0.062586
v -0.450000 0.135538 -0.062586
v -0.450000 0.235538 -0.062586
v -0.450000 0.435538 -0.062586
v -0.450000 0.535538 -0.062586
v -0.650000 0.735538 -0.062586
v -0.450000 0.635538 -0.062586
v -0.450000 0.735538 -0.062586
v -0.350000 0.235538 -0.062586
v -0.350000 0.435538 -0.062586
v -0.350000 0.535538 -0.062586
v -0.250000 0.235538 -0.062586
v -0.350000 0.635538 -0.062586
v -0.250000 0.435538 -0.062586
v -0.250000 0.535538 -0.062586
v -0.250000 0.635538 -0.062586
v -0.150000 0.235538 -0.062586
v -0.150000 0.435538 -0.062586
v -0.150000 0.535538 -0.062586
v -0.050000 0.235538 -0.062586
v -0.150000 0.635538 -0.062586
v -0.050000 0.435538 -0.062586
v -0.050000 0.535538 -0.062586
v -0.050000 0.635538 -0.062586
v 0.050000 0.235538 -0.062586
v 0.050000 0.435538 -0.062586
v 0.050000 0.535538 -0.062586
v 0.150000 0.235538 -0.062586
v 0.050000 0.635538 -0.062586
v 0.150000 0.435538 -0.062586
v 0.150000 0.535538 -0.062586
v 0.150000 0.635538 -0.062586
v 0.250000 0.235538 -0.062586
v 0.250000 0.435538 -0.062586
v 0.250000 0.535538 -0.062586
v 0.350000 0.235538 -0.062586
v 0.250000 0.635538 -0.062586
v 0.350000 0.435538 -0.062586
v 0.350000 0.535538 -0.062586
v 0.350000 0.635538 -0.062586
v 0.450000 0.135538 -0.062586
v 0.450000 0.235538 -0.062586
v 0.450000 0.435538 -0.062586
v 0.450000 0.535538 -0.062586
v 0.450000 0.635538 -0.062586
v 0.650000 0.035538 -0.062586
v 0.450000 0.735538 -0.062586
v 0.650000 0.635538 -0.062586
v 0.650000 0.735538 -0.062586
v -0.650000 0.035538 -0.062586
v 0.650000 0.035538 0.137414
v -0.650000 0.035538 0.137414
v 0.650000 0.035538 -0.062586
v -0.450000 0.435538 -0.062586
v -0.350000 0.435538 0.037414
v -0.450000 0.435538 0.037414
v -0.350000 0.435538 -0.062586
v -0.250000 0.435538 -0.062586
v -0.150000 0.435538 0.037414
v -0.250000 0.435538 0.037414
v -0.150000 0.435538 -0.062586
v -0.050000 0.435538 -0.062586
v 0.050000 0.435538 0.037414
v -0.050000 0.435538 0.037414
v 0.050000 0.435538 -0.062586
v 0.150000 0.435538 -0.062586
v 0.250000 0.435538 0.037414
v 0.150000 0.435538 0.037414
v 0.250000 0.435538 -0.062586
v 0.350000 0.435538 -0.062586
v 0.450000 0.435538 0.037414
v 0.350000 0.435538 0.037414
v 0.450000 0.435538 -0.062586
v -0.450000 0.135538 0.137414
v 0.450000 0.135538 0.137414
v -0.450000 0.135538 0.037414
v 0.450000 0.135538 0.037414
v -0.450000 0.235538 0.037414
v -0.350000 0.235538 0.037414
v -0.450000 0.235538 -0.062586
v -0.350000 0.235538 -0.062586
v -0.250000 0.235538 0.037414
v -0.150000 0.235538 0.037414
v -0.250000 0.235538 -0.062586
v -0.150000 0.235538 -0.062586
v -0.050000 0.235538 0.037414
v 0.050000 0.235538 0.037414
v -0.050000 0.235538 -0.062586
v 0.050000 0.235538 -0.062586
v 0.150000 0.235538 0.037414
v 0.250000 0.235538 0.037414
v 0.150000 0.235538 -0.062586
v 0.250000 0.235538 -0.062586
v 0.350000 0.235538 0.037414
v 0.450000 0.235538 0.037414
v 0.350000 0.235538 -0.062586
v 0.450000 0.235538 -0.062586
v -0.450000 0.535538 0.037414
v -0.350000 0.535538 0.037414
v -0.450000 0.535538 -0.062586
v -0.350000 0.535538 -0.062586
v -0.250000 0.535538 0.037414
v -0.150000 0.535538 0.037414
v -0.250000 0.535538 -0.062586
v -0.150000 0.535538 -0.062586
v -0.050000 0.535538 0.037414
v 0.050000 0.535538 0.037414
v -0.050000 0.535538 -0.062586
v 0.050000 0.535538 -0.062586
v 0.150000 0.535538 0.037414
v 0.250000 0.535538 0.037414
v 0.150000 0.535538 -0.062586
v 0.250000 0.535538 -0.062586
v 0.350000 0.535538 0.037414
v 0.450000 0.535538 0.037414
v 0.350000 0.535538 -0.062586
v 0.450000 0.535538 -0.062586
v -0.350000 0.635538 0.037414
v -0.250000 0.635538 0.037414
v -0.350000 0.635538 -0.062586
v -0.250000 0.635538 -0.062586
v -0.150000 0.635538 0.037414
v -0.050000 0.635538 0.037414
v -0.150000 0.635538 -0.062586
v -0.050000 0.635538 -0.062586
v 0.050000 0.635538 0.037414
v 0.150000 0.635538 0.037414
v 0.050000 0.635538 -0.062586
v 0.150000 0.635538 -0.062586
v 0.250000 0.635538 0.037414
v 0.350000 0.635538 0.037414
v 0.250000 0.635538 -0.062586
v 0.350000 0.635538 -0.062586
v -0.650000 0.735538 0.137414
v -0.450000 0.735538 0.137414
v -0.650000 0.735538 -0.062586
v -0.450000 0.735538 -0.062586
v 0.450000 0.735538 0.137414
v 0.650000 0.735538 0.137414
v 0.450000 0.735538 -0.062586
v 0.650000 0.735538 -0.062586
vt 0.927734 0.500000
vt 0.927734 0.500000
vt 0.927734 0.500000
vt 0.927734 0.500000
vt 0.935547 0.500000
vt 0.935547 0.500000
vt 0.935547 0.500000
vt 0.935547 0.500000
vt 0.990234 0.500000
vt 0.990234 0.500000
vt 0.990234 0.500000
vt 0.990234 0.500000
vt 0.990234 0.500000
vt 0.990234 0.500000
vt 0.990234 0.500000
vt 0.990234 0.500000
vt 0.990234 0.500000
vt 0.990234 0.500000
vt 0.990234 0.500000
vt 0.990234 0.500000
vt 0.990234 0.500000
vt 0.990234 0.500000
vt 0.990234 0.500000
vt 0.990234 0.500000
vt 0.990234 0.500000
vt 0.990234 0.500000
vt 0.990234 0.500000
vt 0.990234 0.500000
vt 0.990234 0.500000
vt 0.990234 0.500000
vt 0.990234 0.500000
vt 0.990234 0.500000
vt 0.990234 0.500000
vt 0.990234 0.500000
vt 0.990234 0.500000
vt 0.990234 0.500000
vt 0.990234 0.500000
vt 0.990234 0.500000
vt 0.990234 0.500000
vt 0.990234 0.500000
vt 0.927734 0.500000
vt 0.927734 0.500000
vt 0.927734 0.500000
vt 0.927734 0.500000
vt 0.927734 0.500000
vt 0.927734 0.500000
vt 0.927734 0.500000
vt 0.927734 0.500000
vt 0.927734 0.500000
vt 0.927734 0.500000
vt 0.935547 0.500000
vt 0.935547 0.500000
vt 0.935547 0.500000
vt 0.935547 0.500000
vt 0.927734 0.500000
vt 0.927734 0.500000
vt 0.927734 0.500000
vt 0.927734 0.500000
vt 0.927734 0.500000
vt 0.927734 0.500000
vt 0.927734 0.500000
vt 0.927734 0.500000
vt 0.927734 0.500000
vt 0.927734 0.500000
vt 0.935547 0.500000
vt 0.935547 0.500000
vt 0.935547 0.500000
vt 0.935547 0.500000
vt 0.990234 0.500000
vt 0.990234 0.500000
vt 0.990234 0.500000
vt 0.990234 0.500000
vt 0.990234 0.500000
vt 0.990234 0.500000
vt 0.990234 0.500000
vt 0.990234 0.500000
vt 0.990234 0.500000
vt 0.990234 0.500000
vt 0.990234 0.500000
vt 0.990234 0.500000
vt 0.990234 0.500000
vt 0.990234 0.500000
vt 0.990234 0.500000
vt 0.990234 0.500000
vt 0.990234 0.500000
vt 0.990234 0.500000
vt 0.990234 0.500000
vt 0.990234 0.500000
vt 0.990234 0.500000
vt 0.990234 0.500000
vt 0.990234 0.500000
vt 0.990234 0.500000
vt 0.990234 0.500000
vt 0.990234 0.500000
vt 0.990234 0.500000
vt 0.990234 0.500000
vt 0.990234 0.500000
vt 0.990234 0.500000
vt 0.990234 0.500000
vt 0.990234 0.500000
vt 0.927734 0.500000
vt 0.927734 0.500000
vt 0.927734 0.500000
vt 0.927734 0.500000
vt 0.935547 0.500000
vt 0.935547 0.500000
vt 0.935547 0.500000
vt 0.935547 0.500000
vt 0.927734 0.500000
vt 0.927734 0.500000
vt 0.927734 0.500000
vt 0.935547 0.500000
vt 0.935547 0.500000
vt 0.935547 0.500000
vt 0.927734 0.500000
vt 0.935547 0.500000
vt 0.927734 0.500000
vt 0.927734 0.500000
vt 0.927734 0.500000
vt 0.935547 0.500000
vt 0.935547 0.500000
vt 0.935547 0.500000
vt 0.927734 0.500000
vt 0.935547 0.500000
vt 0.990234 0.500000
vt 0.990234 0.500000
vt 0.990234 0.500000
vt 0.990234 0.500000
vt 0.990234 0.500000
vt 0.990234 0.500000
vt 0.990234 0.500000
vt 0.990234 0.500000
vt 0.990234 0.500000
vt 0.990234 0.500000
vt 0.990234 0.500000
vt 0.990234 0.500000
vt 0.990234 0.500000
vt 0.990234 0.500000
vt 0.990234 0.500000
vt 0.990234 0.500000
vt 0.990234 0.500000
vt 0.990234 0.500000
vt 0.990234 0.500000
vt 0.990234 0.500000
vt 0.990234 0.500000
vt 0.990234 0.500000
vt 0.990234 0.500000
vt 0.990234 0.500000
vt 0.990234 0.500000
vt 0.990234 0.500000
vt 0.990234 0.500000
vt 0.990234 0.500000
vt 0.990234 0.500000
vt 0.990234 0.500000
vt 0.990234 0.500000
vt 0.990234 0.500000
vt 0.990234 0.500000
vt 0.990234 0.500000
vt 0.990234 0.500000
vt 0.990234 0.500000
vt 0.990234 0.500000
vt 0.990234 0.500000
vt 0.990234 0.500000
vt 0.990234 0.500000
vt 0.927734 0.500000
vt 0.927734 0.500000
vt 0.927734 0.500000
vt 0.927734 0.500000
vt 0.927734 0.500000
vt 0.927734 0.500000
vt 0.935547 0.500000
vt 0.935547 0.500000
vt 0.935547 0.500000
vt 0.927734 0.500000
vt 0.935547 0.500000
vt 0.990234 0.500000
vt 0.990234 0.500000
vt 0.990234 0.500000
vt 0.990234 0.500000
vt 0.990234 0.500000
vt 0.990234 0.500000
vt 0.990234 0.500000
vt 0.990234 0.500000
vt 0.990234 0.500000
vt 0.990234 0.500000
vt 0.990234 0.500000
vt 0.990234 0.500000
vt 0.990234 0.500000
vt 0.990234 0.500000
vt 0.990234 0.500000
vt 0.990234 0.500000
vt 0.990234 0.500000
vt 0.990234 0.500000
vt 0.990234 0.500000
vt 0.990234 0.500000
vt 0.990234 0.500000
vt 0.990234 0.500000
vt 0.990234 0.500000
vt 0.990234 0.500000
vt 0.990234 0.500000
vt 0.990234 0.500000
vt 0.990234 0.500000
vt 0.990234 0.500000
vt 0.990234 0.500000
vt 0.990234 0.500000
vt 0.990234 0.500000
vt 0.990234 0.500000
vt 0.990234 0.500000
vt 0.990234 0.500000
vt 0.990234 0.500000
vt 0.990234 0.500000
vt 0.927734 0.500000
vt 0.990234 0.500000
vt 0.990234 0.500000
vt 0.990234 0.500000
vt 0.990234 0.500000
vt 0.927734 0.500000
vt 0.927734 0.500000
vt 0.927734 0.500000
vt 0.927734 0.500000
vt 0.927734 0.500000
vt 0.935547 0.500000
vt 0.935547 0.500000
vt 0.935547 0.500000
vt 0.927734 0.500000
vt 0.935547 0.500000
vt 0.927734 0.500000
vt 0.927734 0.500000
vt 0.927734 0.500000
vt 0.927734 0.500000
vt 0.990234 0.500000
vt 0.990234 0.500000
vt 0.990234 0.500000
vt 0.990234 0.500000
vt 0.990234 0.500000
vt 0.990234 0.500000
vt 0.990234 0.500000
vt 0.990234 0.500000
vt 0.990234 0.500000
vt 0.990234 0.500000
vt 0.990234 0.500000
vt 0.990234 0.500000
vt 0.990234 0.500000
vt 0.990234 0.500000
vt 0.990234 0.500000
vt 0.990234 0.500000
vt 0.990234 0.500000
vt 0.990234 0.500000
vt 0.990234 0.500000
vt 0.990234 0.500000
vt 0.927734 0.500000
vt 0.927734 0.500000
vt 0.927734 0.500000
vt 0.927734 0.500000
vt 0.990234 0.500000
vt 0.990234 0.500000
vt 0.990234 0.500000
vt 0.990234 0.500000
vt 0.990234 0.500000
vt 0.990234 0.500000
vt 0.990234 0.500000
vt 0.990234 0.500000
vt 0.990234 0.500000
vt 0.990234 0.500000
vt 0.990234 0.500000
vt 0.990234 0.500000
vt 0.990234 0.500000
vt 0.990234 0.500000
vt 0.990234 0.500000
vt 0.990234 0.500000
vt 0.990234 0.500000
vt 0.990234 0.500000
vt 0.990234 0.500000
vt 0.990234 0.500000
vt 0.990234 0.500000
vt 0.990234 0.500000
vt 0.990234 0.500000
vt 0.990234 0.500000
vt 0.990234 0.500000
vt 0.990234 0.500000
vt 0.990234 0.500000
vt 0.990234 0.500000
vt 0.990234 0.500000
vt 0.990234 0.500000
vt 0.990234 0.500000
vt 0.990234 0.500000
vt 0.990234 0.500000
vt 0.990234 0.500000
vt 0.990234 0.500000
vt 0.990234 0.500000
vt 0.990234 0.500000
vt 0.990234 0.500000
vt 0.990234 0.500000
vt 0.990234 0.500000
vt 0.990234 0.500000
vt 0.990234 0.500000
vt 0.990234 0.500000
vt 0.990234 0.500000
vt 0.990234 0.500000
vt 0.990234 0.500000
vt 0.990234 0.500000
vt 0.990234 0.500000
vt 0.990234 0.500000
vt 0.990234 0.500000
vt 0.990234 0.500000
vt 0.990234 0.500000
vt 0.990234 0.500000
vt 0.990234 0.500000
vt 0.990234 0.500000
vt 0.990234 0.500000
vt 0.935547 0.500000
vt 0.935547 0.500000
vt 0.935547 0.500000
vt 0.935547 0.500000
vt 0.935547 0.500000
vt 0.935547 0.500000
vt 0.935547 0.500000
vt 0.935547 0.500000
vn -1.0000 0.0000 0.0000
vn 1.0000 -0.0000 0.0000
vn -0.0000 -0.0000 1.0000
vn -0.0000 0.0000 -1.0000
vn 0.0000 -1.0000 -0.0000
vn 0.0000 1.0000 0.0000
usemtl palette.001
s 1
f 1/1/1 2/2/1 3/3/1
f 4/4/1 2/2/1 1/1/1
f 5/5/1 4/6/1 1/7/1
f 6/8/1 4/6/1 5/5/1
f 7/9/1 8/10/1 9/11/1
f 10/12/1 8/10/1 7/9/1
f 11/13/1 12/14/1 13/15/1
f 14/16/1 12/14/1 11/13/1
f 15/17/1 16/18/1 17/19/1
f 18/20/1 16/18/1 15/17/1
f 19/21/1 20/22/1 21/23/1
f 22/24/1 20/22/1 19/21/1
f 23/25/1 24/26/1 25/27/1
f 26/28/1 24/26/1 23/25/1
f 27/29/1 28/30/1 29/31/1
f 30/32/1 28/30/1 27/29/1
f 31/33/1 32/34/1 33/35/1
f 34/36/1 32/34/1 31/33/1
f 35/37/1 36/38/1 37/39/1
f 38/40/1 36/38/1 35/37/1
f 39/41/1 40/42/1 41/43/1
f 42/44/1 39/41/1 41/43/1
f 42/44/1 43/45/1 39/41/1
f 44/46/1 43/45/1 42/44/1
f 45/47/1 42/44/1 41/43/1
f 46/48/1 45/47/1 41/43/1
f 46/48/1 47/49/1 45/47/1
f 48/50/1 47/49/1 46/48/1
f 49/51/1 48/52/1 46/53/1
f 50/54/1 48/52/1 49/51/1
f 51/55/2 52/56/2 53/57/2
f 51/55/2 53/57/2 54/58/2
f 53/57/2 55/59/2 54/58/2
f 54/58/2 55/59/2 56/60/2
f 51/55/2 54/58/2 57/61/2
f 51/55/2 57/61/2 58/62/2
f 57/61/2 59/63/2 58/62/2
f 58/62/2 59/63/2 60/64/2
f 58/65/2 60/66/2 61/67/2
f 61/67/2 60/66/2 62/68/2
f 63/69/2 64/70/2 65/71/2
f 65/71/2 64/70/2 66/72/2
f 67/73/2 68/74/2 69/75/2
f 69/75/2 68/74/2 70/76/2
f 71/77/2 72/78/2 73/79/2
f 73/79/2 72/78/2 74/80/2
f 75/81/2 76/82/2 77/83/2
f 77/83/2 76/82/2 78/84/2
f 79/85/2 80/86/2 81/87/2
f 81/87/2 80/86/2 82/88/2
f 83/89/2 84/90/2 85/91/2
f 85/91/2 84/90/2 86/92/2
f 87/93/2 88/94/2 89/95/2
f 89/95/2 88/94/2 90/96/2
f 91/97/2 92/98/2 93/99/2
f 93/99/2 92/98/2 94/100/2
f 95/101/2 96/102/2 97/103/2
f 97/103/2 96/102/2 98/104/2
f 97/105/2 98/106/2 99/107/2
f 99/107/2 98/106/2 100/108/2
f 101/109/3 102/110/3 103/111/3
f 104/112/3 105/113/3 102/114/3
f 104/115/3 102/110/3 101/109/3
f 106/116/3 105/113/3 104/112/3
f 107/117/3 101/109/3 103/111/3
f 108/118/3 107/117/3 103/111/3
f 108/118/3 109/119/3 107/117/3
f 110/120/3 111/121/3 109/122/3
f 110/123/3 109/119/3 108/118/3
f 112/124/3 111/121/3 110/120/3
f 113/125/3 114/126/3 115/127/3
f 116/128/3 117/129/3 118/130/3
f 119/131/3 117/129/3 116/128/3
f 120/132/3 113/125/3 115/127/3
f 120/132/3 121/133/3 119/131/3
f 120/132/3 119/131/3 116/128/3
f 120/132/3 116/128/3 113/125/3
f 122/134/3 121/133/3 120/132/3
f 123/135/3 121/133/3 122/134/3
f 124/136/3 121/133/3 123/135/3
f 125/137/3 120/132/3 115/127/3
f 126/138/3 123/135/3 122/134/3
f 127/139/3 123/135/3 126/138/3
f 128/140/3 125/137/3 115/127/3
f 128/140/3 129/141/3 127/139/3
f 128/140/3 127/139/3 126/138/3
f 128/140/3 126/138/3 125/137/3
f 130/142/3 129/141/3 128/140/3
f 131/143/3 129/141/3 130/142/3
f 132/144/3 129/141/3 131/143/3
f 133/145/3 128/140/3 115/127/3
f 134/146/3 131/143/3 130/142/3
f 135/147/3 131/143/3 134/146/3
f 136/148/3 133/145/3 115/127/3
f 136/148/3 137/149/3 135/147/3
f 136/148/3 135/147/3 134/146/3
f 136/148/3 134/146/3 133/145/3
f 138/150/3 137/149/3 136/148/3
f 139/151/3 137/149/3 138/150/3
f 140/152/3 137/149/3 139/151/3
f 141/153/3 136/148/3 115/127/3
f 142/154/3 139/151/3 138/150/3
f 143/155/3 139/151/3 142/154/3
f 144/156/3 141/153/3 115/127/3
f 144/156/3 145/157/3 143/155/3
f 144/156/3 143/155/3 142/154/3
f 144/156/3 142/154/3 141/153/3
f 146/158/3 145/157/3 144/156/3
f 147/159/3 145/157/3 146/158/3
f 148/160/3 145/157/3 147/159/3
f 149/161/3 144/156/3 115/127/3
f 150/162/3 144/156/3 149/161/3
f 151/163/3 147/159/3 146/158/3
f 152/164/3 147/159/3 151/163/3
f 153/165/4 154/166/4 155/167/4
f 155/167/4 154/166/4 156/168/4
f 156/168/4 154/166/4 157/169/4
f 157/169/4 154/166/4 158/170/4
f 154/171/4 159/172/4 160/173/4
f 158/170/4 154/166/4 160/174/4
f 160/173/4 159/172/4 161/175/4
f 155/176/4 156/177/4 162/178/4
f 157/179/4 158/180/4 163/181/4
f 163/181/4 158/180/4 164/182/4
f 155/176/4 162/178/4 165/183/4
f 164/182/4 166/184/4 165/183/4
f 163/181/4 164/182/4 165/183/4
f 162/178/4 163/181/4 165/183/4
f 165/183/4 166/184/4 167/185/4
f 167/185/4 166/184/4 168/186/4
f 168/186/4 166/184/4 169/187/4
f 155/176/4 165/183/4 170/188/4
f 167/185/4 168/186/4 171/189/4
f 171/189/4 168/186/4 172/190/4
f 155/176/4 170/188/4 173/191/4
f 172/190/4 174/192/4 173/191/4
f 171/189/4 172/190/4 173/191/4
f 170/188/4 171/189/4 173/191/4
f 173/191/4 174/192/4 175/193/4
f 175/193/4 174/192/4 176/194/4
f 176/194/4 174/192/4 177/195/4
f 155/176/4 173/191/4 178/196/4
f 175/193/4 176/194/4 179/197/4
f 179/197/4 176/194/4 180/198/4
f 155/176/4 178/196/4 181/199/4
f 180/198/4 182/200/4 181/199/4
f 179/197/4 180/198/4 181/199/4
f 178/196/4 179/197/4 181/199/4
f 181/199/4 182/200/4 183/201/4
f 183/201/4 182/200/4 184/202/4
f 184/202/4 182/200/4 185/203/4
f 155/176/4 181/199/4 186/204/4
f 183/201/4 184/202/4 187/205/4
f 187/205/4 184/202/4 188/206/4
f 155/176/4 186/204/4 189/207/4
f 188/206/4 190/208/4 189/207/4
f 187/205/4 188/206/4 189/207/4
f 186/204/4 187/205/4 189/207/4
f 189/207/4 190/208/4 191/209/4
f 191/209/4 190/208/4 192/210/4
f 192/210/4 190/208/4 193/211/4
f 153/165/4 155/167/4 194/212/4
f 155/176/4 189/207/4 194/213/4
f 194/213/4 189/207/4 195/214/4
f 191/209/4 192/210/4 196/215/4
f 196/215/4 192/210/4 197/216/4
f 197/217/4 198/218/4 199/219/4
f 196/220/4 197/217/4 199/219/4
f 153/165/4 194/212/4 199/219/4
f 194/212/4 195/221/4 199/219/4
f 195/221/4 196/220/4 199/219/4
f 198/222/4 200/223/4 201/224/4
f 199/219/4 198/218/4 201/225/4
f 201/224/4 200/223/4 202/226/4
f 203/227/5 204/228/5 205/229/5
f 206/230/5 204/228/5 203/227/5
f 207/231/5 208/232/5 209/233/5
f 210/234/5 208/232/5 207/231/5
f 211/235/5 212/236/5 213/237/5
f 214/238/5 212/236/5 211/235/5
f 215/239/5 216/240/5 217/241/5
f 218/242/5 216/240/5 215/239/5
f 219/243/5 220/244/5 221/245/5
f 222/246/5 220/244/5 219/243/5
f 223/247/5 224/248/5 225/249/5
f 226/250/5 224/248/5 223/247/5
f 227/251/6 228/252/6 229/253/6
f 229/253/6 228/252/6 230/254/6
f 231/255/6 232/256/6 233/257/6
f 233/257/6 232/256/6 234/258/6
f 235/259/6 236/260/6 237/261/6
f 237/261/6 236/260/6 238/262/6
f 239/263/6 240/264/6 241/265/6
f 241/265/6 240/264/6 242/266/6
f 243/267/6 244/268/6 245/269/6
f 245/269/6 244/268/6 246/270/6
f 247/271/6 248/272/6 249/273/6
f 249/273/6 248/272/6 250/274/6
f 251/275/6 252/276/6 253/277/6
f 253/277/6 252/276/6 254/278/6
f 255/279/6 256/280/6 257/281/6
f 257/281/6 256/280/6 258/282/6
f 259/283/6 260/284/6 261/285/6
f 261/285/6 260/284/6 262/286/6
f 263/287/6 264/288/6 265/289/6
f 265/289/6 264/288/6 266/290/6
f 267/291/6 268/292/6 269/293/6
f 269/293/6 268/292/6 270/294/6
f 271/295/6 272/296/6 273/297/6
f 273/297/6 272/296/6 274/298/6
f 275/299/6 276/300/6 277/301/6
f 277/301/6 276/300/6 278/302/6
f 279/303/6 280/304/6 281/305/6
f 281/305/6 280/304/6 282/306/6
f 283/307/6 284/308/6 285/309/6
f 285/309/6 284/308/6 286/310/6
f 287/311/6 288/312/6 289/313/6
f 289/313/6 288/312/6 290/314/6
f 291/315/6 292/316/6 293/317/6
f 293/317/6 292/316/6 294/318/6
