# ProBuilder 5.0.7
# https://unity3d.com/unity/features/worldbuilding/probuilder
# 8/15/2023 7:14:05 PM

mtllib ./island4_collider1.mtl
o island4_collider1

g PolyShape
v 16.6993 -3.306716 -26.38348
v 22.56317 -3.306716 -27.09859
v 16.6993 12.51367 -26.38348
v 22.56317 12.51367 -27.09859
v 12.69471 -3.306716 -19.08941
v 12.69471 12.51367 -19.08941
v 32.86069 -3.306716 -18.66034
v 32.86069 12.51367 -18.66034
v 38.15247 -3.306716 -7.933762
v 38.15247 12.51367 -7.933762
v -7.042206 -3.306716 -22.95098
v -1.750427 -3.306716 -24.66723
v -7.042206 12.51367 -22.95098
v -1.750427 12.51367 -24.66723
v -5.755016 -3.306716 -18.08826
v -5.755016 12.51367 -18.08826
v 3.68438 -3.306716 -18.51732
v 3.68438 12.51367 -18.51732
v -11.7619 -3.306716 -9.363972
v -11.7619 12.51367 -9.363972
v -11.90492 -3.306716 -4.501255
v -11.90492 12.51367 -4.501255
v -24.34776 -3.306716 34.5435
v -29.49652 -3.306716 27.39245
v -24.34776 12.51367 34.5435
v -29.49652 12.51367 27.39245
v -31.06976 -3.306716 18.38212
v -31.06976 12.51367 18.38212
v -37.36269 -3.306716 4.795117
v -28.78142 -3.306716 -0.6396847
v -37.36269 12.51367 4.795117
v -28.78142 12.51367 -0.6396847
v -37.64873 -3.306716 11.51711
v -37.64873 12.51367 11.51711
v -34.93132 -3.306716 16.66587
v -34.93132 12.51367 16.66587
v -12.33398 -3.306716 41.98061
v -12.33398 12.51367 41.98061
v -5.461319 -3.306716 45.51485
v -5.461319 12.51367 45.51485
v 17.76832 -3.306716 45.90201
v 17.76832 12.51367 45.90201
v 26.09227 -3.306716 43.57904
v 26.09227 12.51367 43.57904
v 34.60981 -3.306716 35.83584
v 34.60981 12.51367 35.83584
v 38.09425 -3.306716 26.54398
v 38.09425 12.51367 26.54398
v 40.22364 -3.306716 15.89707
v 40.22364 12.51367 15.89707
v 46.16165 -3.306716 -1.640833
v 46.22463 -3.306716 4.282248
v 46.16165 12.51367 -1.640833
v 46.22463 12.51367 4.282248

vt 26.2008 1.693284
vt 20.29349 1.693284
vt 26.2008 17.51367
vt 20.29349 17.51367
vt 0.4515589 1.693284
vt -7.869517 1.693284
vt 0.4515589 17.51367
vt -7.869517 17.51367
vt 34.64868 1.693284
vt 21.33541 1.693284
vt 34.64868 17.51367
vt 21.33541 17.51367
vt 21.51582 1.693284
vt 9.554946 1.693284
vt 21.51582 17.51367
vt 9.554946 17.51367
vt 43.90789 1.693284
vt 38.34476 1.693284
vt 43.90789 17.51367
vt 38.34476 17.51367
vt -29.58153 1.693284
vt -34.61172 1.693284
vt -29.58153 17.51367
vt -34.61172 17.51367
vt 49.28908 1.693284
vt 41.08186 1.693284
vt 49.28908 17.51367
vt 41.08186 17.51367
vt 26.14946 1.693284
vt 15.5572 1.693284
vt 26.14946 17.51367
vt 15.5572 17.51367
vt -1.562205 1.693284
vt -6.427025 1.693284
vt -1.562205 17.51367
vt -6.427025 17.51367
vt 41.29654 1.693284
vt 32.26807 1.693284
vt 41.29654 17.51367
vt 32.26807 17.51367
vt -12.16715 1.693284
vt -20.97892 1.693284
vt -12.16715 17.51367
vt -20.97892 17.51367
vt 15.18312 1.693284
vt 6.03647 1.693284
vt 15.18312 17.51367
vt 6.03647 17.51367
vt 73.78699 1.693284
vt 63.62947 1.693284
vt 73.78699 17.51367
vt 63.62947 17.51367
vt 16.29929 1.693284
vt 9.57121 1.693284
vt 16.29929 17.51367
vt 9.57121 17.51367
vt -62.60947 1.693284
vt -66.83525 1.693284
vt -62.60947 17.51367
vt -66.83525 17.51367
vt -22.02361 1.693284
vt -27.84547 1.693284
vt -22.02361 17.51367
vt -27.84547 17.51367
vt 73.18684 1.693284
vt 55.87419 1.693284
vt 73.18684 17.51367
vt 55.87419 17.51367
vt -26.99241 1.693284
vt -41.12186 1.693284
vt -26.99241 17.51367
vt -41.12186 17.51367
vt -24.53078 1.693284
vt -32.25894 1.693284
vt -24.53078 17.51367
vt -32.25894 17.51367
vt -27.60396 1.693284
vt -50.83682 1.693284
vt -27.60396 17.51367
vt -50.83682 17.51367
vt -31.37554 1.693284
vt -40.01755 1.693284
vt -31.37554 17.51367
vt -40.01755 17.51367
vt -33.4812 1.693284
vt -44.99231 1.693284
vt -33.4812 17.51367
vt -44.99231 17.51367
vt -28.83875 1.693284
vt -38.76245 1.693284
vt -28.83875 17.51367
vt -38.76245 17.51367
vt -17.95954 1.693284
vt -28.81731 1.693284
vt -17.95954 17.51367
vt -28.81731 17.51367
vt 0.4102706 1.693284
vt -5.513146 1.693284
vt 0.4102706 17.51367
vt -5.513146 17.51367
vt 10.43916 1.693284
vt 0.2534884 1.693284
vt 10.43916 17.51367
vt 0.2534884 17.51367
vt -4.868796 1.693284
vt -17.94227 1.693284
vt -4.868796 17.51367
vt -17.94227 17.51367

vn -0.1210546 0 -0.9926459
vn -0.8765786 0 -0.4812588
vn 0.6338227 0 -0.7734784
vn 0.8968058 0 -0.4424244
vn -0.3085039 0 -0.9512231
vn -0.9667053 0 0.2558923
vn 0.7493287 0 -0.6621982
vn -0.8236479 0 -0.5671017
vn -0.9995678 0 -0.02939896
vn -0.06336447 0 -0.9979904
vn -0.8115341 0 0.5843049
vn -0.9850968 0 0.1720013
vn -0.535052 0 -0.8448191
vn -0.9990959 0 -0.04251457
vn -0.4061389 0 0.9138113
vn -0.8843843 0 0.4667595
vn -0.2230491 0 -0.9748073
vn -0.5263547 0 0.8502651
vn -0.4573205 0 0.889302
vn -0.01666438 0 0.9998612
vn 0.2687994 0 0.9631962
vn 0.6726724 0 0.7399405
vn 0.9363292 0 0.3511233
vn 0.9805806 0 0.1961164
vn 0.9999435 0 -0.01063184
vn 0.6178216 0 -0.7863184
vn 0.8884259 0 0.45902

usemtl Lit
f 3/3/1 4/4/1 2/2/1 1/1/1
f 6/7/2 3/8/2 1/6/2 5/5/2
f 4/11/3 8/12/3 7/10/3 2/9/3
f 8/15/4 10/16/4 9/14/4 7/13/4
f 13/19/5 14/20/5 12/18/5 11/17/5
f 16/23/6 13/24/6 11/22/6 15/21/6
f 14/27/7 18/28/7 17/26/7 12/25/7
f 20/31/8 16/32/8 15/30/8 19/29/8
f 22/35/9 20/36/9 19/34/9 21/33/9
f 18/39/10 6/40/10 5/38/10 17/37/10
f 25/43/11 26/44/11 24/42/11 23/41/11
f 26/47/12 28/48/12 27/46/12 24/45/12
f 31/51/13 32/52/13 30/50/13 29/49/13
f 34/55/14 31/56/14 29/54/14 33/53/14
f 28/59/15 36/60/15 35/58/15 27/57/15
f 36/63/16 34/64/16 33/62/16 35/61/16
f 32/67/17 22/68/17 21/66/17 30/65/17
f 38/71/18 25/72/18 23/70/18 37/69/18
f 40/75/19 38/76/19 37/74/19 39/73/19
f 42/79/20 40/80/20 39/78/20 41/77/20
f 44/83/21 42/84/21 41/82/21 43/81/21
f 46/87/22 44/88/22 43/86/22 45/85/22
f 48/91/23 46/92/23 45/90/23 47/89/23
f 50/95/24 48/96/24 47/94/24 49/93/24
f 53/99/25 54/100/25 52/98/25 51/97/25
f 10/103/26 53/104/26 51/102/26 9/101/26
f 54/107/27 50/108/27 49/106/27 52/105/27

