# ProBuilder 5.0.7
# https://unity3d.com/unity/features/worldbuilding/probuilder
# 8/16/2023 6:34:30 AM

mtllib ./island5_collider1.mtl
o island5_collider1

g PolyShape
v -6.285301 0 0.9040527
v -7.878155 0 0
v -6.285301 9.926397 0.9040527
v -7.878155 9.926397 0
v -9.471004 0 -2.324707
v -9.471004 9.926397 -2.324707
v 0 0 0
v 0 9.926397 0
v 2.054737 0 -3.275497
v 1.383757 0 -0.7257843
v 2.054737 9.926397 -3.275497
v 1.383757 9.926397 -0.7257843
v -14.33566 0 -0.3013458
v -14.33566 9.926397 -0.3013458
v -18.32895 0 -1.245743
v -18.32895 9.926397 -1.245743
v -22.65718 0 -5.768509
v -22.65718 9.926397 -5.768509
v -25.8126 0 -11.75798
v -24.076 0 -17.60455
v -25.8126 9.926397 -11.75798
v -24.076 9.926397 -17.60455
v -23.96023 0 -10.54236
v -23.96023 9.926397 -10.54236
v -20.70163 0 -17.48713
v -20.70163 9.926397 -17.48713
v -16.2374 0 -22.5994
v -16.2374 9.926397 -22.5994
v -14.33834 0 -27.98973
v -5.150703 0 -33.82861
v -14.33834 9.926397 -27.98973
v -5.150703 9.926397 -33.82861
v 3.150208 0 -29.38692
v 3.150208 9.926397 -29.38692
v 8.425543 0 -21.83913
v 8.425543 9.926397 -21.83913
v 11.85104 0 -13.80987
v 11.85104 9.926397 -13.80987
v 4.738655 0 -3.476791
v 4.738655 9.926397 -3.476791
v 9.301315 0 -5.02005
v 9.301315 9.926397 -5.02005
v 11.91814 0 -8.307846
v 11.91814 9.926397 -8.307846

vt -5.019991 0
vt -6.851519 0
vt -5.019991 9.926397
vt -6.851519 9.926397
vt -4.452971 0
vt -7.271026 0
vt -4.452971 9.926397
vt -7.271026 9.926397
vt 0 0
vt -6.349986 0
vt 0 9.926397
vt -6.349986 9.926397
vt 3.690568 0
vt 1.054046 0
vt 3.690568 9.926397
vt 1.054046 9.926397
vt 1.562545 0
vt 1.562545 9.926397
vt -7.851973 0
vt -13.12064 0
vt -7.851973 9.926397
vt -13.12064 9.926397
vt -14.02018 0
vt -18.12363 0
vt -14.02018 9.926397
vt -18.12363 9.926397
vt -13.57263 0
vt -19.83274 0
vt -13.57263 9.926397
vt -19.83274 9.926397
vt -3.921538 0
vt -10.02056 0
vt -3.921538 9.926397
vt -10.02056 9.926397
vt -25.81603 0
vt -28.03166 0
vt -25.81603 9.926397
vt -28.03166 9.926397
vt 24.67365 0
vt 21.29723 0
vt 24.67365 9.926397
vt 21.29723 9.926397
vt -11.53105 0
vt -16.47954 0
vt -11.53105 9.926397
vt -16.47954 9.926397
vt 0.444662 0
vt -6.34243 0
vt 0.444662 9.926397
vt -6.34243 9.926397
vt -2.911357 0
vt -13.79736 0
vt -2.911357 9.926397
vt -13.79736 9.926397
vt 20.50141 0
vt 11.08686 0
vt 20.50141 9.926397
vt 11.08686 9.926397
vt -15.91973 0
vt -21.63481 0
vt -15.91973 9.926397
vt -21.63481 9.926397
vt 22.28221 0
vt 13.07361 0
vt 22.28221 9.926397
vt 13.07361 9.926397
vt 16.7812 0
vt 8.051756 0
vt 16.7812 9.926397
vt 8.051756 9.926397
vt 4.985413 0
vt 2.293957 0
vt 4.985413 9.926397
vt 2.293957 9.926397
vt 10.4194 0
vt 5.602818 0
vt 10.4194 9.926397
vt 5.602818 9.926397
vt 13.66434 0
vt 8.161907 0
vt 13.66434 9.926397
vt 8.161907 9.926397
vt 13.92223 0
vt 9.720167 0
vt 13.92223 9.926397
vt 9.720167 9.926397

vn -0.4936058 0 0.8696858
vn -0.8249332 0 0.5652303
vn 0.1423708 0 0.9898134
vn 0.9670742 0 0.2544945
vn 0.4644887 0 0.885579
vn 0.3840369 0 0.9233177
vn -0.230147 0 0.9731559
vn -0.7224737 0 0.6913985
vn -0.9586064 0 -0.2847345
vn -0.5486567 0 0.8360477
vn 0.03477548 0 -0.9993952
vn -0.9647081 0 0.2633214
vn -0.7532337 0 -0.6577529
vn -0.5363652 0 -0.843986
vn 0.4717892 0 -0.8817114
vn -0.9431776 0 -0.3322892
vn 0.8196459 0 -0.5728706
vn 0.9197914 0 -0.3924077
vn 0.07478998 0 0.9971993
vn 0.320405 0 0.9472806
vn 0.9999257 0 -0.01219332
vn 0.7824238 0 0.6227464

usemtl Lit
f 3/3/1 4/4/1 2/2/1 1/1/1
f 4/7/2 6/8/2 5/6/2 2/5/2
f 8/11/3 3/12/3 1/10/3 7/9/3
f 11/15/4 12/16/4 10/14/4 9/13/4
f 12/18/5 8/11/5 7/9/5 10/17/5
f 6/21/6 14/22/6 13/20/6 5/19/6
f 14/25/7 16/26/7 15/24/7 13/23/7
f 16/29/8 18/30/8 17/28/8 15/27/8
f 21/33/9 22/34/9 20/32/9 19/31/9
f 24/37/10 21/38/10 19/36/10 23/35/10
f 22/41/11 26/42/11 25/40/11 20/39/11
f 18/45/12 24/46/12 23/44/12 17/43/12
f 26/49/13 28/50/13 27/48/13 25/47/13
f 31/53/14 32/54/14 30/52/14 29/51/14
f 32/57/15 34/58/15 33/56/15 30/55/15
f 28/61/16 31/62/16 29/60/16 27/59/16
f 34/65/17 36/66/17 35/64/17 33/63/17
f 36/69/18 38/70/18 37/68/18 35/67/18
f 40/73/19 11/74/19 9/72/19 39/71/19
f 42/77/20 40/78/20 39/76/20 41/75/20
f 38/81/21 44/82/21 43/80/21 37/79/21
f 44/85/22 42/86/22 41/84/22 43/83/22

