# ProBuilder 5.0.7
# https://unity3d.com/unity/features/worldbuilding/probuilder
# 8/16/2023 6:47:39 AM

mtllib ./island7_collider1.mtl
o island7_collider1

g PolyShape
v -8.716576 -1.907349E-06 32.9446
v 5.822781 0 36.20045
v -0.2828827 1.907349E-06 36.51601
v -16.04342 0 16.71608
v -14.86321 1.907349E-06 29.31364
v -13.53566 0 12.09389
v 13.59503 0 30.51907
v 16.39413 -1.907349E-06 26.20473
v -3.801464 0 2.729073
v 0 0 0
v 7.603928 0 2.890533
v -13.76342 0 5.388947
v -8.744617 0 2.370911
v -14.16294 0 9.514427
v 14.10953 0 3.933044
v 15.36501 0 9.623596
v 16.43832 -1.907349E-06 13.29482
v 5.822784 16.28456 36.20045
v -0.2828789 16.28456 36.51601
v -8.716572 16.28456 32.9446
v -14.8632 16.28456 29.31364
v -16.04342 16.28456 16.71608
v -13.53565 16.28456 12.09389
v 13.59503 16.28456 30.51907
v 16.39413 16.28456 26.20473
v -3.80146 16.28456 2.729073
v 3.814697E-06 16.28456 0
v 7.603931 16.28456 2.890533
v -13.76342 16.28456 5.388947
v -8.744614 16.28456 2.370911
v -14.16294 16.28456 9.514427
v 14.10953 16.28456 3.933044
v 15.36501 16.28456 9.623596
v 16.43833 16.28456 13.29482

vt -8.716576 32.9446
vt 5.822781 36.20045
vt -0.2828827 36.51601
vt -16.04342 16.71608
vt -14.86321 29.31364
vt -13.53566 12.09389
vt 13.59503 30.51907
vt 16.39413 26.20473
vt -3.801464 2.729073
vt 0 0
vt 7.603928 2.890533
vt -13.76342 5.388947
vt -8.744617 2.370911
vt -14.16294 9.514427
vt 14.10953 3.933044
vt 15.36501 9.623596
vt 16.43832 13.29482
vt 3.946608 4.407301E-07
vt -2.167204 2.348079E-06
vt 3.946612 16.28456
vt -2.1672 16.28456
vt 13.9788 -1.174262E-06
vt 4.82008 -4.98896E-06
vt 13.9788 16.28456
vt 4.820084 16.28456
vt 9.250998 -5.815067E-06
vt 2.112027 -2.00037E-06
vt 9.251001 16.28456
vt 2.112031 16.28456
vt 27.79944 -2.181825E-06
vt 15.14671 -4.089173E-06
vt 27.79944 16.28456
vt 15.14671 16.28456
vt 22.34371 -1.262173E-06
vt 17.08505 -1.262173E-06
vt 22.34371 16.28456
vt 17.08505 16.28456
vt -7.034797 0
vt -16.66215 0
vt -7.034797 16.28456
vt -16.66215 16.28456
vt -13.06047 -1.907349E-06
vt -18.20328 0
vt -13.06047 16.28456
vt -18.20328 16.28456
vt 4.679633 -1.345945E-14
vt 4.67963 16.28456
vt -3.09884E-06 16.28456
vt -8.134795 -4.319543E-15
vt -8.134799 16.28456
vt 14.57219 -2.987408E-07
vt 8.715828 -2.987409E-07
vt 14.57218 16.28456
vt 8.715825 16.28456
vt 10.83532 -3.073041E-06
vt 6.690539 -3.073041E-06
vt 10.83532 16.28456
vt 6.690539 16.28456
vt 8.552929 -3.644196E-06
vt 5.89829 -3.644196E-06
vt 8.552929 16.28456
vt 5.898291 16.28456
vt 8.550416 -5.072934E-08
vt 3.594304 -5.072934E-08
vt 8.550412 16.28456
vt 3.5943 16.28456
vt -6.880493 0
vt -12.70789 0
vt -6.880493 16.28456
vt -12.70789 16.28456
vt -7.965504 -6.119366E-08
vt -14.5541 -6.119366E-08
vt -7.965508 16.28456
vt -14.5541 16.28456
vt -13.54855 0
vt -17.37346 -1.907349E-06
vt -13.54855 16.28456
vt -17.37346 16.28456
vt -13.23847 5.815318E-06
vt -26.14845 5.815318E-06
vt -13.23847 16.28457
vt -26.14845 16.28457

vn -2.347887E-07 -1 4.09657E-07
vn 0.05161293 -1.209045E-08 0.9986672
vn -0.3899465 9.134592E-08 0.9208375
vn -0.5086098 1.191431E-07 0.8609971
vn -0.9956402 2.332311E-07 0.09327742
vn -0.8789669 2.059001E-07 -0.4768828
vn 0.590129 0 0.807309
vn 0.838908 0 0.5442733
vn -0.5831809 1.366115E-07 -0.8123423
vn 0.3553296 -8.32368E-08 -0.9347411
vn -0.5153435 1.207205E-07 -0.8569837
vn -0.9953434 2.331616E-07 -0.09639224
vn -0.9716803 2.276185E-07 0.2362992
vn 0.07226672 -1.692865E-08 -0.9973854
vn 0.9765162 0 -0.2154439
vn 0.1582295 -3.706564E-08 -0.9874024
vn 0.959821 0 -0.2806129
vn 0.9999942 -4.68502E-07 0.003423482

usemtl Lit
f 17/17/1 8/8/1 11/11/1
f 17/17/1 11/11/1 16/16/1
f 15/15/1 16/16/1 11/11/1
f 6/6/1 11/11/1 8/8/1
f 6/6/1 9/9/1 11/11/1
f 13/13/1 9/9/1 6/6/1
f 13/13/1 6/6/1 14/14/1
f 12/12/1 13/13/1 14/14/1
f 9/9/1 10/10/1 11/11/1
f 8/8/1 7/7/1 6/6/1
f 6/6/1 7/7/1 2/2/1
f 6/6/1 2/2/1 1/1/1
f 6/6/1 1/1/1 4/4/1
f 4/4/1 1/1/1 5/5/1
f 1/1/1 2/2/1 3/3/1
f 19/21/2 3/19/2 2/18/2
f 2/18/2 18/20/2 19/21/2
f 20/25/3 1/23/3 3/22/3
f 3/22/3 19/24/3 20/25/3
f 21/29/4 5/27/4 1/26/4
f 1/26/4 20/28/4 21/29/4
f 22/33/5 4/31/5 5/30/5
f 5/30/5 21/32/5 22/33/5
f 23/37/6 6/35/6 4/34/6
f 4/34/6 22/36/6 23/37/6
f 18/41/7 2/39/7 7/38/7
f 7/38/7 24/40/7 18/41/7
f 24/45/8 7/43/8 8/42/8
f 8/42/8 25/44/8 24/45/8
f 27/48/9 10/10/9 9/46/9
f 9/46/9 26/47/9 27/48/9
f 28/50/10 11/49/10 10/10/10
f 10/10/10 27/48/10 28/50/10
f 30/54/11 13/52/11 12/51/11
f 12/51/11 29/53/11 30/54/11
f 29/58/12 12/56/12 14/55/12
f 14/55/12 31/57/12 29/58/12
f 31/62/13 14/60/13 6/59/13
f 6/59/13 23/61/13 31/62/13
f 26/66/14 9/64/14 13/63/14
f 13/63/14 30/65/14 26/66/14
f 33/70/15 16/68/15 15/67/15
f 15/67/15 32/69/15 33/70/15
f 32/74/16 15/72/16 11/71/16
f 11/71/16 28/73/16 32/74/16
f 34/78/17 17/76/17 16/75/17
f 16/75/17 33/77/17 34/78/17
f 25/82/18 8/80/18 17/79/18
f 17/79/18 34/81/18 25/82/18

