# ProBuilder 5.0.7
# https://unity3d.com/unity/features/worldbuilding/probuilder
# 8/16/2023 6:16:35 AM

mtllib ./island2_collider1.mtl
o island2_collider1

g PolyShape (1)
v -1.159576 0 1.562908
v -3.327484 0 2.419991
v -1.159576 6.57022 2.493141
v -3.327484 6.57022 3.350224
v 0 0 0
v 0 6.57022 0.930233
v -6.654968 0 1.865406
v -6.654968 6.57022 2.795639
v -4.436646 0 -16.78868
v -2.974571 0 -16.18368
v -4.436646 6.57022 -15.85844
v -2.974571 6.57022 -15.25344
v -0.9579086 0 -11.9487
v -0.9579086 6.57022 -11.01847
v -10.63787 0 -16.93992
v -10.63787 6.57022 -16.00969
v -16.43576 0 -7.058304
v -18.75492 0 -6.95747
v -16.43576 6.57022 -6.128071
v -18.75492 6.57022 -6.027237
v -21.47741 0 -8.974129
v -21.47741 6.57022 -8.043896
v -24.09906 0 -14.77201
v -22.08241 0 -16.18368
v -24.09906 6.57022 -13.84178
v -22.08241 6.57022 -15.25344
v -24.1999 0 -12.95703
v -24.1999 6.57022 -12.0268
v -22.3849 0 -10.78912
v -22.3849 6.57022 -9.858891
v -21.62866 0 -17.74659
v -21.62866 6.57022 -16.81636
v -19.66241 0 -16.58701
v -19.66241 6.57022 -15.65678
v -18.35159 0 -16.99035
v -18.35159 6.57022 -16.06012
v -17.49451 0 -17.99867
v -17.49451 6.57022 -17.06843
v -16.43576 0 -17.09118
v -16.43576 6.57022 -16.16095
v -12.60411 0 -17.19201
v -12.60411 6.57022 -16.26178
v -11.44453 0 -18.04909
v -11.44453 6.57022 -17.11886
v -14.16702 0 -4.99123
v -14.16702 6.57022 -4.060997
v 0.2016678 0 -7.411221
v 0.2016678 6.57022 -6.480988
v -10.28496 0 -0.6049995
v -10.28496 6.57022 0.3252335
v 0.5041656 0 -5.545811
v 0.5041656 6.57022 -4.615578

vt -1.652979 0.1340794
vt -3.984162 0.1340794
vt -1.994988 6.761006
vt -4.326171 6.761006
vt 0 0
vt -1.946099 7.355339E-09
vt -0.7470684 6.593559
vt -2.693167 6.593559
vt -2.884363 0.4058288
vt -6.257746 0.4058288
vt -2.731432 7.039812
vt -6.104816 7.039812
vt 10.51871 -1.792304
vt 8.936409 -1.792304
vt 10.16303 4.833903
vt 8.580732 4.833903
vt 15.89047 -0.2595819
vt 11.19984 -0.2595819
vt 15.0506 6.322799
vt 10.35997 6.322799
vt 11.04774 -2.336987
vt 4.844673 -2.336987
vt 11.02506 4.298721
vt 4.821992 4.298721
vt -16.11366 -1.087611
vt -18.435 -1.087611
vt -16.15406 5.548012
vt -18.47541 5.548012
vt -19.21193 0.6299461
vt -22.59997 0.6299461
vt -18.65823 7.242551
vt -22.04627 7.242551
vt 11.27148 -2.986622
vt 8.809832 -2.986622
vt 11.80494 3.627647
vt 9.343288 3.627647
vt -11.59469 -0.1954058
vt -13.41247 -0.1954058
vt -10.66589 6.375017
vt -12.48367 6.375017
vt -22.64234 0.9266734
vt -25.46971 0.9266734
vt -21.92908 7.523974
vt -24.75645 7.523974
vt -9.385133 -1.014466
vt -11.01257 -1.014466
vt -8.491783 5.560872
vt -10.11923 5.560872
vt 27.64518 -0.5204634
vt 25.36248 -0.5204634
vt 27.17264 6.098435
vt 24.88994 6.098435
vt -17.63167 0.9602949
vt -19.66089 0.9602949
vt -16.79964 7.543672
vt -18.82887 7.543672
vt 13.91485 -2.901374
vt 12.54337 -2.901374
vt 14.18842 3.72873
vt 12.81694 3.72873
vt -1.060129 -2.281603
vt -2.383499 -2.281603
vt -0.3513538 4.316181
vt -1.674717 4.316182
vt 24.9962 -0.2437283
vt 23.60175 -0.2437283
vt 24.39081 6.364345
vt 22.99637 6.364345
vt 15.98048 -2.454867
vt 12.1475 -2.454867
vt 16.00495 4.180833
vt 12.17197 4.180833
vt -0.08294325 -2.411529
vt -1.524891 -2.411529
vt 0.46998 4.20114
vt -0.9719681 4.20114
vt 21.32831 -0.1128873
vt 19.95683 -0.1128873
vt 20.57599 6.480074
vt 19.20451 6.480074
vt -13.83376 0.6091145
vt -16.90296 0.6091145
vt -13.20726 7.215219
vt -16.27645 7.215219
vt 11.81383 -0.07113313
vt 7.130524 -0.07113313
vt 10.91256 6.503123
vt 6.229255 6.503123
vt -7.269496 0.6820732
vt -13.12692 0.6820732
vt -6.572908 7.281156
vt -12.43034 7.281156
vt 7.283376 -0.03138938
vt 5.393599 -0.03138938
vt 6.365138 6.540518
vt 4.47536 6.540518
vt -4.45223 0.6145706
vt -8.843099 0.6145706
vt -3.928859 7.229645
vt -8.319728 7.229645
vt 5.56868 -6.301053E-10
vt 4.642267 6.57076
vt -0.9264127 6.57076

vn 0.3645138 -0.1305401 0.9220027
vn 0.8002555 -0.0840633 0.5937377
vn -0.1628199 -0.1383145 0.9769129
vn 0.3791209 0.1297204 -0.9162096
vn 0.9011921 0.06075929 -0.4291401
vn 0.02414167 0.1401448 -0.9898366
vn 0.04300952 -0.1400554 0.9892091
vn -0.5914125 -0.113041 0.7984066
vn -0.5696448 0.1152174 -0.8137751
vn -0.9984295 0.007853499 -0.05546913
vn -0.7636098 -0.09051446 0.6393021
vn -0.9595988 0.03944432 -0.2785934
vn 0.504248 0.1210576 -0.8550315
vn -0.8926404 -0.06319119 0.4463183
vn -0.2914328 0.1340994 -0.9471454
vn -0.7587534 0.09131315 -0.6449459
vn 0.6470634 0.1068827 -0.7549073
vn -0.02604634 0.140137 -0.9897895
vn -0.590579 0.1131261 -0.7990112
vn 0.8059481 0.08298734 -0.5861406
vn -0.6698312 -0.1040893 0.7351813
vn 0.9682681 0.03503419 -0.2474459
vn -0.7455572 -0.09342522 0.6598607
vn 0.9868522 0.0226575 -0.1600295
vn -0.5588084 -0.1162551 0.8211077
vn 0.9958114 -0.01281732 0.0905285

usemtl Lit
f 3/3/1 4/4/1 2/2/1 1/1/1
f 6/7/2 3/8/2 1/6/2 5/5/2
f 4/11/3 8/12/3 7/10/3 2/9/3
f 11/15/4 12/16/4 10/14/4 9/13/4
f 12/19/5 14/20/5 13/18/5 10/17/5
f 16/23/6 11/24/6 9/22/6 15/21/6
f 19/27/7 20/28/7 18/26/7 17/25/7
f 20/31/8 22/32/8 21/30/8 18/29/8
f 25/35/9 26/36/9 24/34/9 23/33/9
f 28/39/10 25/40/10 23/38/10 27/37/10
f 30/43/11 28/44/11 27/42/11 29/41/11
f 26/47/12 32/48/12 31/46/12 24/45/12
f 32/51/13 34/52/13 33/50/13 31/49/13
f 22/55/14 30/56/14 29/54/14 21/53/14
f 34/59/15 36/60/15 35/58/15 33/57/15
f 36/63/16 38/64/16 37/62/16 35/61/16
f 38/67/17 40/68/17 39/66/17 37/65/17
f 40/71/18 42/72/18 41/70/18 39/69/18
f 42/75/19 44/76/19 43/74/19 41/73/19
f 44/79/20 16/80/20 15/78/20 43/77/20
f 46/83/21 19/84/21 17/82/21 45/81/21
f 14/87/22 48/88/22 47/86/22 13/85/22
f 50/91/23 46/92/23 45/90/23 49/89/23
f 48/95/24 52/96/24 51/94/24 47/93/24
f 8/99/25 50/100/25 49/98/25 7/97/25
f 52/102/26 6/103/26 5/5/26 51/101/26

